<?xml version="1.0" encoding="utf-8"?>
<!-- Generator: Adobe Illustrator 24.2.0, SVG Export Plug-In . SVG Version: 6.00 Build 0)  -->
<svg version="1.1" id="Layer_1" xmlns="http://www.w3.org/2000/svg" xmlns:xlink="http://www.w3.org/1999/xlink" x="0px" y="0px"
	 viewBox="0 0 20 20" style="enable-background:new 0 0 20 20; $style$" height="$height$" width="$height$" class="$class$"  xml:space="preserve">
<path d="M15.5,5.3c0.3,0.3,0.4,0.8,0.4,1.3c0,0.3-0.1,0.6-0.2,0.8c-0.2,0.3-0.4,0.4-0.8,0.4h-1.6c0.9,1.6,1.1,2.7,0.6,3.5
	c-0.3,0.5-0.8,0.7-1.2,0.7c-0.1,0-0.3-0.1-0.3-0.3c-0.1-0.8-0.7-1.7-1.7-2.6c-0.9-0.8-2-1.5-3.2-1.9C7.5,7.6,7.2,7.8,6.8,7.8H5
	c-0.5,0-0.9-0.4-0.9-0.9V1.5C4.1,1,4.5,0.6,5,0.6h1.8c0.4,0,0.7,0.2,0.8,0.6c1.2-0.1,1.6-0.4,2-0.6c0.5-0.3,1-0.6,2.7-0.6
	c0.4,0,0.8,0.1,1.1,0.3c0.3,0.2,0.5,0.5,0.6,0.8c0.2,0.1,0.5,0.3,0.6,0.7C14.9,2.1,15,2.5,15,2.8c0,0.1,0,0.1,0,0.2
	c0.2,0.1,0.3,0.3,0.4,0.5c0.2,0.3,0.3,0.7,0.3,1.1C15.6,4.9,15.6,5.1,15.5,5.3C15.5,5.2,15.5,5.3,15.5,5.3L15.5,5.3z M6.8,1.2H5
	c-0.2,0-0.3,0.1-0.3,0.3v5.4c0,0.2,0.1,0.3,0.3,0.3h1.8c0.2,0,0.3-0.1,0.3-0.3V1.5v0C7.1,1.3,7,1.2,6.8,1.2z M15.1,5.8
	c-0.1-0.2-0.2-0.2-0.2-0.2c-0.2,0-0.3-0.1-0.3-0.3c0-0.2,0.1-0.3,0.3-0.3c0,0,0,0,0.1,0C15,4.9,15,4.7,15,4.6C15,4.3,15,4,14.8,3.8
	c-0.1-0.2-0.2-0.3-0.3-0.3c-0.2,0-0.3-0.1-0.3-0.3c0-0.1,0.1-0.2,0.1-0.3c0-0.2-0.1-0.7-0.3-1c-0.1-0.1-0.2-0.2-0.3-0.2
	c-0.2,0-0.3-0.1-0.3-0.3c0-0.5-0.6-0.8-1.1-0.8c-1.5,0-1.9,0.2-2.4,0.5C9.5,1.3,9,1.6,7.7,1.8v4.9c1.3,0.4,2.5,1.1,3.5,2
	c1,0.9,1.6,1.8,1.8,2.7c0.2-0.1,0.3-0.2,0.5-0.4c0.2-0.4,0.4-1.3-0.9-3.3c-0.1-0.1-0.1-0.2,0-0.3c0.1-0.1,0.2-0.2,0.3-0.2h2.1
	c0.1,0,0.2,0,0.3-0.1c0.1-0.1,0.1-0.3,0.1-0.5C15.3,6.3,15.2,6,15.1,5.8L15.1,5.8z"/>
<path d="M4.5,14.7c-0.3-0.3-0.4-0.8-0.4-1.3c0-0.3,0.1-0.6,0.2-0.8c0.2-0.3,0.4-0.4,0.8-0.4h1.6C5.8,10.6,5.6,9.5,6,8.7
	C6.3,8.2,6.9,8,7.2,8c0.1,0,0.3,0.1,0.3,0.3c0.1,0.8,0.7,1.7,1.7,2.6c0.9,0.8,2,1.5,3.2,1.9c0.1-0.3,0.5-0.5,0.8-0.5H15
	c0.5,0,0.9,0.4,0.9,0.9v5.4c0,0.5-0.4,0.9-0.9,0.9h-1.8c-0.4,0-0.7-0.2-0.8-0.6c-1.2,0.1-1.6,0.4-2,0.6c-0.5,0.3-1,0.6-2.7,0.6
	c-0.4,0-0.8-0.1-1.1-0.3c-0.3-0.2-0.5-0.5-0.6-0.8c-0.2-0.1-0.5-0.3-0.6-0.7C5.1,17.9,5,17.5,5,17.2c0-0.1,0-0.1,0-0.2
	c-0.2-0.1-0.3-0.3-0.4-0.5c-0.2-0.3-0.3-0.7-0.3-1.1C4.4,15.1,4.4,14.9,4.5,14.7C4.5,14.8,4.5,14.7,4.5,14.7L4.5,14.7z M13.2,18.8
	H15c0.2,0,0.3-0.1,0.3-0.3v-5.4c0-0.2-0.1-0.3-0.3-0.3h-1.8c-0.2,0-0.3,0.1-0.3,0.3v5.4v0C12.9,18.7,13,18.8,13.2,18.8z M4.9,14.2
	c0.1,0.2,0.2,0.2,0.2,0.2c0.2,0,0.3,0.1,0.3,0.3c0,0.2-0.1,0.3-0.3,0.3c0,0,0,0-0.1,0C5,15.1,5,15.3,5,15.4C5,15.7,5,16,5.2,16.2
	c0.1,0.2,0.2,0.3,0.3,0.3c0.2,0,0.3,0.1,0.3,0.3c0,0.1-0.1,0.2-0.1,0.3c0,0.2,0.1,0.7,0.3,1c0.1,0.1,0.2,0.2,0.3,0.2
	c0.2,0,0.3,0.1,0.3,0.3c0,0.5,0.6,0.8,1.1,0.8c1.5,0,1.9-0.2,2.4-0.5c0.5-0.2,1-0.5,2.3-0.7v-4.9c-1.3-0.4-2.5-1.1-3.5-2
	c-1-0.9-1.6-1.8-1.8-2.7C6.8,8.7,6.7,8.8,6.5,9c-0.2,0.4-0.4,1.3,0.9,3.3c0.1,0.1,0.1,0.2,0,0.3c-0.1,0.1-0.2,0.2-0.3,0.2H5.1
	c-0.1,0-0.2,0-0.3,0.1c-0.1,0.1-0.1,0.3-0.1,0.5C4.7,13.7,4.8,14,4.9,14.2L4.9,14.2z"/>
</svg>
